<?xml version="1.0" standalone="no"?><!DOCTYPE svg PUBLIC "-//W3C//DTD SVG 1.1//EN" "http://www.w3.org/Graphics/SVG/1.1/DTD/svg11.dtd"><svg t="1711611698227" class="icon" viewBox="0 0 1098 1024" version="1.1" xmlns="http://www.w3.org/2000/svg" p-id="1182" xmlns:xlink="http://www.w3.org/1999/xlink" width="214.453125" height="200"><path d="M1065.296376 206.273381c-19.181756-29.815121-83.746437-23.143206-120.858965-23.143206H641.977251c-21.544726-1.389982-44.270938 0-61.298222 0-14.17782 0-40.309488-0.347496-69.429619 0H217.059645c-41.351975 0-169.021854-6.741414-194.806027 13.274332-24.602688 19.042758 60.186236 92.711823 60.186236 127.183385v459.667164a115.577033 115.577033 0 0 0 115.090539 116.063527h766.43627a115.577033 115.577033 0 0 0 115.090539-116.063527V323.518393a265.695127 265.695127 0 0 0-13.760826-117.245012z m-114.95154 537.645175a28.911633 28.911633 0 0 1-28.772635 29.050631h-126.696892s-14.733813-458.763676-14.733813-463.559115h134.689291a28.772635 28.772635 0 0 1 28.772634 28.911633c0 97.229266 6.741414 405.596851 6.741415 405.596851z" fill="#F7D071" p-id="1183"></path><path d="M964.036162 916.693362H197.460894a133.09081 133.09081 0 0 1-132.465319-133.438306V323.518393A166.936881 166.936881 0 0 0 34.832958 272.50604c-24.672187-33.915569-50.247862-68.943125-23.351703-89.862359a375.295236 375.295236 0 0 1 178.682231-17.374779c10.772363 0.277996 20.015746 0.486494 26.82666 0.486494h294.259264c20.710737-0.277996 40.100991-0.208497 54.765305-0.069499h14.594815l17.096783-0.208498c14.038822-0.347496 29.884621-0.694991 45.243925 0.277997l318.653455-0.277997c41.004479-1.042487 96.534274-2.223972 118.1485 31.413601a229.764083 229.764083 0 0 1 16.679788 113.700557v472.663499a133.160309 133.160309 0 0 1-132.534817 133.438306zM35.52795 208.497353a223.995656 223.995656 0 0 0 27.452151 43.506448 148.728112 148.728112 0 0 1 36.834532 71.584091v459.667164a98.341252 98.341252 0 0 0 97.71576 98.688747h766.43627a98.341252 98.341252 0 0 0 97.785258-98.688747V310.38306a226.289127 226.289127 0 0 0-11.119858-94.657799v-0.069499c-11.119859-17.30528-59.352247-16.054296-88.124882-15.498303l-18.06977 0.347496H641.977251c-15.428804-0.903489-30.162617-0.555993-43.436949-0.277997l-17.861273 0.277997-14.803312-0.0695c-14.386317 0-33.568074-0.208497-54.34831 0H217.059645c-6.949912 0-16.471291-0.138998-27.521651-0.347495A626.326049 626.326049 0 0 0 35.52795 208.497353z m886.044251 581.846613h-143.585177l-0.486494-16.888285c-3.474956-107.723632-14.733813-459.389168-14.664314-464.254106l0.277997-17.166282h151.716574a46.077915 46.077915 0 0 1 46.077915 46.355911c0 95.908782 6.741414 402.052396 6.810913 405.110357v0.416995a46.355911 46.355911 0 0 1-46.147414 46.42541z m-109.878105-34.749559h109.808606a11.397855 11.397855 0 0 0 11.467354-11.536853c-0.208497-10.007873-6.810914-310.591557-6.810913-405.735849a11.328356 11.328356 0 0 0-3.335958-8.200896 11.119859 11.119859 0 0 0-7.992398-3.335958h-116.758518c1.945975 63.939188 9.104384 290.367314 13.621827 428.809556z" fill="#6B2020" p-id="1184"></path><path d="M735.592562 182.087688a61.854215 61.854215 0 0 0 15.011809-38.57201C750.604371 73.877562 610.911145 17.374779 438.622832 17.374779s-311.91204 56.502783-311.91204 126.140899a61.854215 61.854215 0 0 0 14.94231 38.502511z" fill="#A0C660" p-id="1185"></path><path d="M744.001955 199.462468H133.313208l-5.281933-6.671916a78.603502 78.603502 0 0 1-18.695262-49.344373C109.336013 61.784716 250.975214 0 438.622832 0c187.786616 0 329.356319 61.715217 329.356319 143.515678a78.811999 78.811999 0 0 1-18.764762 49.344374z m-593.313967-34.749559h575.939188a40.865481 40.865481 0 0 0 6.602416-21.197231C733.229592 92.086331 612.301127 34.749559 438.622832 34.749559c-173.539297 0-294.537261 57.336772-294.537261 108.766119a40.587485 40.587485 0 0 0 6.602417 21.127732z" fill="#6B2020" p-id="1186"></path><path d="M865.347415 1006.625221a131.005837 131.005837 0 0 0-128.364871-107.306638H214.696675a131.005837 131.005837 0 0 0-128.36487 107.306638z" fill="#A0C660" p-id="1187"></path><path d="M886.19715 1024H65.41257l3.752953-20.50224a147.894122 147.894122 0 0 1 145.461653-121.553957h522.285869a147.824623 147.824623 0 0 1 145.392154 121.553957z m-777.000136-34.749559H842.412706a113.144564 113.144564 0 0 0-105.499661-72.557079H214.696675a113.144564 113.144564 0 0 0-105.56916 72.557079z" fill="#6B2020" p-id="1188"></path></svg>