<?xml version="1.0" standalone="no"?><!DOCTYPE svg PUBLIC "-//W3C//DTD SVG 1.1//EN" "http://www.w3.org/Graphics/SVG/1.1/DTD/svg11.dtd"><svg t="1715599352767" class="icon" viewBox="0 0 1024 1024" version="1.1" xmlns="http://www.w3.org/2000/svg" p-id="1591" xmlns:xlink="http://www.w3.org/1999/xlink" width="256" height="256"><path d="M512 512m-512 0a512 512 0 1 0 1024 0 512 512 0 1 0-1024 0Z" fill="#FFC310" p-id="1592"></path><path d="M298.67 398.22v284.45A85.33 85.33 0 0 0 384 768h241.78a85.33 85.33 0 0 0 85.33-85.33V398.22z" fill="#FEE8AD" p-id="1593"></path><path d="M256 327.11h512V384H256z" fill="#FF7F01" p-id="1594"></path><path d="M440.89 270.22h142.22v42.67H440.89z" fill="#FFFFFF" p-id="1595"></path><path d="M640 668.44V512c0-18.47-42.67-18.91-42.67 0v156.44c0 20.45 42.67 16.44 42.67 0z m-199.11 0V512c0-20.78-42.66-18.11-42.66 0v156.44c-0.02 18.97 42.65 17.68 42.65 0z m99.56 14.22V497.78c0-18.26-42.67-20-42.67 0v184.89c-0.01 19.49 42.66 18.68 42.66 0z m199.11-384h-128l0.41-16.33c0-30.21-38.74-54.78-68.88-54.78h-62.18c-30.13 0-68.87 24.58-68.87 54.78l0.4 16.33h-128c-29 0-56.88 27.81-56.88 56.89s23.6 57.06 52.61 57.06l4.27-0.17v284.45c0 50.92 49.8 99.56 100.6 99.56H639c50.8 0 100.6-48.63 100.6-99.56V412.44l4.28 0.17a52.73 52.73 0 0 0 52.61-52.74c-0.05-29.08-27.93-61.2-56.94-61.2zM455.28 290c0-10.82 10.31-19.62 23-19.62h67.44c12.68 0 23 8.8 23 19.62v8.66H455.28z m241.6 406.87c0 32.43-24.54 56.89-56.89 56.89H384c-32.36 0-56.89-24.46-56.89-56.89l-0.75-284.28h371.28z m42.67-327.11H284.43c-10.56 0-14.22-3.63-14.22-14.22s3.66-14.22 14.22-14.22h455.12c10.57 0 14.22 3.63 14.22 14.22s-3.66 14.24-14.22 14.24z" fill="#3A3644" p-id="1596"></path></svg>