<?xml version="1.0" standalone="no"?><!DOCTYPE svg PUBLIC "-//W3C//DTD SVG 1.1//EN" "http://www.w3.org/Graphics/SVG/1.1/DTD/svg11.dtd"><svg t="1716007697556" class="icon" viewBox="0 0 1024 1024" version="1.1" xmlns="http://www.w3.org/2000/svg" p-id="849" xmlns:xlink="http://www.w3.org/1999/xlink" width="256" height="256"><path d="M805.916834 292.453299c0.023492-1.24976 0.098665-2.494822 0.098665-3.763376C806.029594 155.200492 683.63296 46.983469 532.642187 46.983469 402.662421 46.983469 293.947373 127.21244 266.194238 234.687124a189.16954 189.16954 0 0 0-12.915755-0.48393c-89.799504 0-162.600388 64.357955-162.600389 143.764716 0 17.022111 3.373413 33.334771 9.509454 48.48694-25.216028 31.497717-40.086295 69.925496-40.086295 111.454184 0 105.257065 95.221396 190.781073 213.63853 193.073866v0.103363h420.027511c143.990236 0 260.706569-103.199189 260.706569-230.505595 0.018793-91.786904-60.697943-171.048016-148.557029-208.127369z" fill="#EEEEFC" p-id="850"></path><path d="M810.615181 301.849992c0.023492-1.24976 0.098665-2.494822 0.098665-3.763375C810.727941 164.597186 688.331307 56.380162 537.340534 56.380162 407.360768 56.380162 298.64572 136.609133 270.892585 244.083818a189.16954 189.16954 0 0 0-12.915756-0.48393c-89.799504 0-162.600388 64.357955-162.600388 143.764716 0 11.323016 1.522264 22.317148 4.327178 32.879031 16.834177-63.540443 81.281401-110.866891 158.277909-110.866891 4.350669 0 8.644958 0.192632 12.915755 0.48393C298.650418 202.381291 407.360768 122.157018 537.340534 122.157018c150.990773 0 273.387407 108.221722 273.382709 241.706455 0 1.268554-0.08457 2.513616-0.098666 3.763375 77.118665 32.550147 133.315592 97.608156 145.897765 175.112086 1.714897-10.698136 2.659264-21.631189 2.659265-32.761572 0.009397-91.786904-60.70734-171.048016-148.566426-208.12737zM95.507995 448.62165c-19.474648 28.880738-30.703697 62.61017-30.703697 98.684077a172.42933 172.42933 0 0 0 3.208971 32.836747c5.62862-28.871341 18.483297-55.539158 36.877325-78.514075a128.734704 128.734704 0 0 1-9.509454-48.486939c-0.004698-1.517566 0.075174-3.016339 0.126855-4.51981z" fill="#FFFFFF" opacity=".42" p-id="851"></path><path d="M829.408568 292.800976c0-0.281901 0.023492-0.68126 0.037587-1.104111 0.032888-0.826909 0.070475-1.851149 0.070475-3.002244 0-65.297625-26.761784-128.029952-75.375579-176.643747C697.854856 55.769377 617.132559 23.491734 532.642187 23.491734 393.589913 23.491734 274.670056 107.921027 243.449541 228.81419a23.491734 23.491734 0 0 1 24.346833-17.56242 212.877398 212.877398 0 0 0-14.513193-0.54031c-49.1682 0-95.531487 17.045602-130.538869 47.998312C86.919417 290.381328 67.18636 332.736925 67.18636 377.96791c0 19.629693 3.777471 38.90701 11.229049 57.305737a23.491734 23.491734 0 0 1 3.434492-23.496433C52.255014 448.743807 36.614217 492.363259 36.614217 537.913732c0 57.587637 24.920032 111.77837 70.16981 152.597608 44.380584 40.034614 103.513978 62.746422 166.504715 63.963294a23.491734 23.491734 0 0 1-23.035995-23.487036c0 12.976834 10.519599 23.599796 23.491735 23.599796h420.027511c156.708661 0 284.203002-113.944308 284.203001-254.002028 0.009397-97.800788-63.939802-187.999651-162.919876-229.777351a23.477639 23.477639 0 0 1 14.35345 21.992961z m101.582958 207.789089c0 114.146337-106.412858 207.018559-237.219533 207.018559H273.744482a23.491734 23.491734 0 0 1 23.491734 23.491734c0-12.802995-10.242396-23.355482-23.035995-23.595098-105.097321-2.039083-190.602535-78.114715-190.602535-169.591528 0-34.763068 12.07945-68.224695 34.932209-96.77185a23.491734 23.491734 0 0 0 3.434491-23.496433 105.308747 105.308747 0 0 1-7.789859-39.672841c0-31.577589 14.095041-61.430885 39.696333-84.062822 26.414106-23.350784 61.717484-36.214858 99.417019-36.214857 3.378111 0 7.080409 0.14095 11.31362 0.427549a23.491734 23.491734 0 0 0 24.346833-17.56242C314.38988 142.007534 416.884317 70.475203 532.642187 70.475203c72.124323 0 140.73898 27.259808 188.272155 74.792984 39.733919 39.738618 61.609422 90.668698 61.609423 143.421736 0 0.281901-0.018793 0.756434-0.037587 1.259157-0.023492 0.634277-0.05638 1.353124-0.065777 2.161239a23.496433 23.496433 0 0 0 14.358148 21.988264c81.53981 34.415391 134.222373 107.615635 134.212977 186.491482z" fill="#6E6E96" p-id="852"></path><path d="M849.2121 313.642843c35.026176 36.994783 56.13115 84.63602 56.13115 136.64672 0 117.688891-107.897536 213.088824-241.020496 213.088824H276.032576v-0.098666c-109.471482-2.114256-197.499709-81.16864-197.499708-178.485498 0-11.318318 1.226269-22.373528 3.504967-33.099854-14.019867 25.469738-21.931883 54.045084-21.931884 84.283644 0 105.261763 95.221396 190.776374 213.638531 193.073866v0.108062h420.027511c143.994935 0 260.711267-103.208585 260.711267-230.510294 0.009397-75.779637-41.401833-142.994187-105.27116-185.006804zM115.588729 381.764174a119.037316 119.037316 0 0 1-8.790607-44.826927c0-10.336363 1.376616-20.381429 3.904327-30.04123-12.751313 20.517681-20.019656 44.075192-20.019656 69.140872 0 12.535189 1.841752 24.685114 5.25745 36.271238a174.397937 174.397937 0 0 1 19.648486-30.543953z" fill="#6E6E96" opacity=".15" p-id="853"></path><path d="M510.141804 741.366246m-249.5339 0a249.5339 249.5339 0 1 0 499.0678 0 249.5339 249.5339 0 1 0-499.0678 0Z" fill="#00CCC6" p-id="854"></path><path d="M519.538498 473.038959c-137.816608 0-249.5339 111.717292-249.533901 249.529201 0 137.821307 111.717292 249.538598 249.533901 249.538599 0.394661 0 0.779926-0.02819 1.174586-0.02819-115.21756-0.648372-208.423365-94.206553-208.423365-209.57446 0-115.753172 93.840082-209.593253 209.597952-209.593254 115.762568 0 209.588555 93.849479 209.588555 209.593254 0 108.024391-81.723045 196.92651-186.702907 208.338795 125.967378-12.652648 224.289682-118.971539 224.289682-248.274744 0.014095-137.807212-111.712593-249.529202-249.524503-249.529201z" fill="#FFFFFF" opacity=".24" p-id="855"></path><path d="M510.141804 515.32408c124.633047 0 226.032769 101.409119 226.032769 226.037468 0 124.637746-101.399722 226.046864-226.032769 226.046864s-226.042166-101.409119-226.042166-226.046864c-0.004698-124.637746 101.399722-226.037467 226.042166-226.037468z m-273.030333 226.042166c0 150.549128 122.476506 273.025634 273.025634 273.025635 150.54443 0 273.020936-122.476506 273.020937-273.025635s-122.476506-273.025634-273.020937-273.025634-273.025634 122.476506-273.025634 273.025634z" fill="#6E6E96" p-id="856"></path><path d="M611.663683 505.283713c68.454914 38.249242 114.780614 111.388407 114.780614 195.371358 0 123.547729-100.145263 223.702389-223.678898 223.702389-116.970043 0-212.896191-89.771313-222.795608-204.17606a252.921408 252.921408 0 0 0-0.897384 20.409619c0 137.821307 111.712593 249.543297 249.5339 249.543297 137.81191 0 249.519805-111.72199 249.519805-249.543297-0.004698-108.672763-69.507343-201.070452-166.462429-235.307306z" fill="#6E6E96" opacity=".15" p-id="857"></path><path d="M554.527087 736.301428V621.967157H478.188347v114.334271H376.384567l139.968451 139.982547 139.977848-139.982547z" fill="#FFFFFF" p-id="858"></path><path d="M516.353018 899.775709a23.477639 23.477639 0 0 1-16.613354-6.883078L359.771213 752.910084a23.491734 23.491734 0 1 1 16.613354-40.10039h78.312046V621.967157a23.491734 23.491734 0 0 1 23.491734-23.491734h76.343438a23.491734 23.491734 0 0 1 23.491734 23.491734v90.842537h78.312046a23.482338 23.482338 0 0 1 16.608656 40.10039l-139.977848 139.982547a23.491734 23.491734 0 0 1-16.613355 6.883078z m-83.259404-139.982546l83.259404 83.268801 83.268802-83.268801h-45.094733a23.491734 23.491734 0 0 1-23.491735-23.491735V645.458892h-29.359969v90.842536a23.491734 23.491734 0 0 1-23.491735 23.491735h-45.090034z" fill="#6E6E96" p-id="859"></path></svg>