<?xml version="1.0" standalone="no"?><!DOCTYPE svg PUBLIC "-//W3C//DTD SVG 1.1//EN" "http://www.w3.org/Graphics/SVG/1.1/DTD/svg11.dtd"><svg t="1715245778290" class="icon" viewBox="0 0 1024 1024" version="1.1" xmlns="http://www.w3.org/2000/svg" p-id="24439" xmlns:xlink="http://www.w3.org/1999/xlink" width="32" height="32"><path d="M512 67.2c-247.04 0-448 200.96-448 448s200.96 448 448 448 448-200.96 448-448-200.96-448-448-448z m0 800c-193.92 0-352-158.08-352-352s158.08-352 352-352 352 158.08 352 352-158.08 352-352 352z" p-id="24440" fill="#36d0d0"></path><path d="M704 467.2H560V323.2c0-26.24-21.76-48-48-48s-48 21.76-48 48V467.2H320a47.936 47.936 0 1 0 0 96h144v144c0 26.24 21.76 48 48 48s48-21.76 48-48V563.2H704c26.24 0 48-21.76 48-48s-21.76-48-48-48z" p-id="24441" fill="#36d0d0"></path></svg>