<?xml version="1.0" standalone="no"?><!DOCTYPE svg PUBLIC "-//W3C//DTD SVG 1.1//EN" "http://www.w3.org/Graphics/SVG/1.1/DTD/svg11.dtd"><svg t="1720785803255" class="icon" viewBox="0 0 1834 1024" version="1.1" xmlns="http://www.w3.org/2000/svg" p-id="13426" xmlns:xlink="http://www.w3.org/1999/xlink" width="57.3125" height="32"><path d="M1738.507463 359.561552c-45.850746-52.743642-105.838806-78.924418-179.58209-78.924418h-152.453731L1068.704478 12.71594A46.385672 46.385672 0 0 0 1040.047761 2.674627h-420.298507c-9.170149 0-17.576119 2.705194-24.835821 7.320836l-262.113433 163.992836-279.689552-32.34006C33.623881 139.737791 15.283582 150.130627 6.113433 166.682746c-8.40597 17.713672-5.349254 38.881433 7.259701 52.743642l162.00597 175.149851-98.579104 384.580776c-3.820896 13.09803-0.764179 27.724418 8.40597 40.042985 8.40597 11.157015 22.161194 17.713672 35.916418 17.713672H366.80597c30.567164 106.251463 126.853731 184.396418 241.862687 184.396418 115.008955 0 211.295522-78.144955 241.862686-184.396418h229.253732c30.567164 106.251463 126.853731 184.396418 241.862686 184.396418 115.008955 0 211.295522-78.144955 241.862687-184.396418h218.173134c22.925373 0 43.176119-17.713672 45.850746-40.807165 1.146269-11.936478 34.38806-296.425075-89.026865-436.544955zM1257.838806 280.637134H922.364179L730.555224 95.094448h294.208955l233.074627 185.542686zM608.668657 928.523463c-88.644776 0-160.859701-72.749851-160.859702-162.067105 0-89.30197 72.214925-162.067104 160.859702-162.067104 88.644776 0 160.859701 72.749851 160.859701 162.067104 0 89.317254-71.832836 162.067104-160.859701 162.067105z m712.979104 0c-88.644776 0-160.859701-72.749851-160.859701-162.067105 0-89.30197 72.214925-162.067104 160.859701-162.067104 88.644776 0 160.859701 72.749851 160.859702 162.067104 0 89.317254-71.832836 162.067104-160.859702 162.067105zM1739.271642 744.127045h-166.973135c-11.462687-130.109134-118.829851-232.891224-250.650746-232.891224-131.820896 0-239.18806 102.78209-250.650746 232.891224H859.701493c-11.462687-130.109134-118.829851-232.891224-250.650747-232.891224-131.820896 0-239.18806 102.78209-250.650746 232.891224h-177.289552l90.173134-351.079164c3.820896-15.008478-0.764179-31.560597-11.080597-42.732896l-94.758209-102.01791 173.086567 19.639403c11.080597 0.764179 21.014925-0.764179 29.420896-6.541374L615.164179 106.633552c2.292537 5.777194 5.731343 11.157015 10.698508 15.787941l246.447761 237.904238c8.40597 8.467104 19.868657 13.082746 31.713433 13.082747h655.283582c45.850746 0 82.913433 15.78794 110.42388 47.348537 66.865672 76.998687 74.507463 234.450149 69.540299 323.37003z" fill="#e0ba84" p-id="13427"></path></svg>