<?xml version="1.0" standalone="no"?><!DOCTYPE svg PUBLIC "-//W3C//DTD SVG 1.1//EN" "http://www.w3.org/Graphics/SVG/1.1/DTD/svg11.dtd"><svg t="1715419329225" class="icon" viewBox="0 0 1024 1024" version="1.1" xmlns="http://www.w3.org/2000/svg" p-id="19910" xmlns:xlink="http://www.w3.org/1999/xlink" width="256" height="256"><path d="M565.096 289.185s-0.948 0 0 0c-110.933-20.86-208.592 40.77-237.985 148.86-14.222 53.096-24.652 101.451 44.563 221.866 14.222 25.6 11.378 70.163 8.533 95.763-1.896 14.222 64.474 36.03 89.126 42.667l95.763-509.156z" fill="#FDB813" p-id="19911"></path><path d="M732.919 513.896c11.377-111.881-56.89-203.852-166.875-224.71h-0.948L469.333 798.34c25.6 2.844 94.815 6.637 98.608-7.585 6.637-25.6 20.859-67.319 42.666-86.282C719.644 618.193 727.23 568.89 732.92 513.896z" fill="#FD9B13" p-id="19912"></path><path d="M467.437 806.874c-7.585-0.948-12.326-7.585-14.222-14.222l-38.874-256c-0.948-5.689 0.948-11.378 4.74-15.17 3.793-3.793 9.482-5.69 15.17-4.741l167.823 31.289c5.689 0.948 10.43 4.74 12.326 9.481 1.896 4.74 1.896 11.378-0.948 16.119L486.4 798.34c-3.793 6.638-11.378 10.43-18.963 8.534z m-14.222-251.26l27.496 182.993 91.97-160.237-119.466-22.755z" fill="#F12A3F" p-id="19913"></path><path d="M375.467 709.215l-25.6 137.481c0 2.845 1.896 5.69 7.585 10.43l65.422 54.993c5.689 4.74 15.17 8.533 23.704 10.43l36.03-193.423-107.141-19.911z" fill="#2D4375" p-id="19914"></path><path d="M482.607 729.126l-36.03 193.422c9.482 1.896 18.016 1.896 25.6-0.948l80.593-27.496c6.637-1.897 10.43-4.741 11.378-6.637l25.6-138.43-107.14-19.911z" fill="#1E2D4F" p-id="19915"></path><path d="M612.504 217.126c-3.793 18.015-20.86 29.393-38.874 26.548-18.015-3.793-30.341-20.86-26.549-38.874l18.963-100.504c3.793-18.015 20.86-29.392 38.875-26.548 18.014 3.793 30.34 20.86 26.548 38.874l-18.963 100.504zM382.104 228.504c10.43 15.17 6.637 36.03-8.534 46.459-15.17 10.43-36.03 6.637-46.459-8.533l-57.837-84.386c-10.43-15.17-6.637-36.03 8.533-46.459 15.17-10.43 36.03-6.637 46.46 8.534l57.837 84.385z m375.466 70.163c-15.17 10.43-18.963 31.289-8.533 46.459 10.43 15.17 31.289 18.963 46.46 8.533l84.384-57.837c15.17-10.43 18.963-31.289 8.534-46.459-10.43-15.17-31.29-18.963-46.46-8.533l-84.385 57.837zM252.207 361.244c18.015 3.793 30.341 20.86 26.549 38.875-3.793 18.014-20.86 29.392-38.875 26.548l-100.503-18.963c-18.015-3.793-30.341-20.86-26.548-38.874 3.792-18.015 20.859-29.393 38.874-26.549l100.503 18.963z m678.874 127.052c18.015 3.793 30.341 20.86 26.549 38.874-3.793 18.015-20.86 29.393-38.874 26.549l-100.504-18.963c-18.015-3.793-30.34-20.86-26.548-38.875 3.792-18.014 20.859-29.392 38.874-26.548l100.503 18.963z" fill="#FDB813" p-id="19916"></path><path d="M593.54 807.822c1.897-7.585-3.792-15.17-11.377-16.118l-107.14-19.911-4.742 27.496L577.422 819.2c6.637 0.948 14.222-3.793 16.119-11.378z" fill="#CEEFF6" p-id="19917"></path><path d="M366.933 750.933c-7.585-1.896-15.17 3.793-16.118 11.378-1.896 7.585 3.792 15.17 11.378 16.119l107.14 19.91 4.741-27.496-107.14-19.91z m-10.43 57.837c-7.584-1.896-15.17 3.793-16.118 11.378-1.896 7.585 3.793 15.17 11.378 16.119l107.14 19.91 4.741-27.496-107.14-19.91z" fill="#FFFFFF" p-id="19918"></path><path d="M570.785 848.593l-107.14-19.912-4.741 27.497 107.14 19.91c7.586 1.897 15.17-3.792 16.119-11.377 1.896-7.585-2.844-15.17-11.378-16.118z" fill="#CEEFF6" p-id="19919"></path></svg>