<?xml version="1.0" standalone="no"?><!DOCTYPE svg PUBLIC "-//W3C//DTD SVG 1.1//EN" "http://www.w3.org/Graphics/SVG/1.1/DTD/svg11.dtd"><svg t="1715421194335" class="icon" viewBox="0 0 1024 1024" version="1.1" xmlns="http://www.w3.org/2000/svg" p-id="3748" xmlns:xlink="http://www.w3.org/1999/xlink" width="256" height="256"><path d="M834.963255 142.885911m22.627417 22.627417l0 0q22.627417 22.627417 0 45.254834l-678.82251 678.82251q-22.627417 22.627417-45.254834 0l0 0q-22.627417-22.627417 0-45.254834l678.82251-678.82251q22.627417-22.627417 45.254834 0Z" fill="#4A596F" p-id="3749"></path><path d="M736 898.304l-90.496-90.56 135.744-135.68-135.744-135.808 90.496-90.56 226.304 226.304z" fill="#4A596F" p-id="3750"></path><path d="M896 768m64 0l0 0q64 0 64 64l0 0q0 64-64 64l0 0q-64 0-64-64l0 0q0-64 64-64Z" fill="#4A596F" p-id="3751"></path><path d="M271.552 64.022996m90.509668 90.509668l90.509668 90.509668q90.509668 90.509668 0 181.019336l-90.509668 90.509668q-90.509668 90.509668-181.019336 0l-90.509668-90.509668q-90.509668-90.509668 0-181.019336l90.509668-90.509668q90.509668-90.509668 181.019336 0Z" fill="#4A596F" p-id="3752"></path></svg>