<?xml version="1.0" standalone="no"?><!DOCTYPE svg PUBLIC "-//W3C//DTD SVG 1.1//EN" "http://www.w3.org/Graphics/SVG/1.1/DTD/svg11.dtd"><svg t="1716185431243" class="icon" viewBox="0 0 1024 1024" version="1.1" xmlns="http://www.w3.org/2000/svg" p-id="9883" xmlns:xlink="http://www.w3.org/1999/xlink" width="256" height="256"><path d="M0 511.927223a511.999634 511.999634 0 0 1 511.999634-511.999634 509.000779 509.000779 0 0 1 231.423835 55.222817 36.571402 36.571402 0 0 1 21.942841 33.572548 36.571402 36.571402 0 0 1-36.571402 36.571402 36.571402 36.571402 0 0 1-17.99313-4.681139v0.438857A436.150546 436.150546 0 0 0 511.999634 73.801822a438.125401 438.125401 0 0 0-438.198544 438.125401A438.34483 438.34483 0 0 0 511.999634 950.19891a438.34483 438.34483 0 0 0 438.34483-438.271687 436.00426 436.00426 0 0 0-48.201108-199.753 37.083402 37.083402 0 0 1-5.266282-18.870844 36.571402 36.571402 0 0 1 36.571402-36.571402 37.229688 37.229688 0 0 1 33.060548 20.406842A509.732207 509.732207 0 0 1 1023.999269 511.927223a511.999634 511.999634 0 0 1-511.999635 511.999634 511.999634 511.999634 0 0 1-511.999634-511.999634z m402.285427 191.780434a36.571402 36.571402 0 0 1-36.571403-36.571402 25.234268 25.234268 0 0 1 0-3.876569l-0.585142-307.71178h0.438857a10.971421 10.971421 0 0 1 0-2.047998 36.571402 36.571402 0 0 1 36.571402-36.571403 36.571402 36.571402 0 0 1 27.355409 12.434277l258.340387 150.527892a36.571402 36.571402 0 0 1 18.285701 31.81712 37.083402 37.083402 0 0 1-21.13827 33.35312l-264.264954 153.59989a34.742832 34.742832 0 0 1-18.212559 5.119996z m426.641981-496.712788a36.571402 36.571402 0 0 1-18.431987-31.81712 36.571402 36.571402 0 0 1 18.431987-31.81712 36.571402 36.571402 0 0 1 36.571402 0 36.571402 36.571402 0 0 1 18.431987 31.81712 36.571402 36.571402 0 0 1-18.431987 31.81712 36.571402 36.571402 0 0 1-18.358844 4.900568 36.571402 36.571402 0 0 1-18.578272-4.973711z" fill="#374E71" p-id="9884"></path><path d="M401.992856 703.707657a35.254832 35.254832 0 0 0 18.505129-5.119996l264.264954-153.59989a37.010259 37.010259 0 0 0 21.138271-33.426262 36.571402 36.571402 0 0 0-18.285701-31.81712L429.275122 329.216496a36.132546 36.132546 0 0 0-27.355409-12.434277 36.571402 36.571402 0 0 0-36.571403 36.571403 12.50742 12.50742 0 0 0 0 2.047998h-0.438856l0.585142 307.638638v3.876568a36.571402 36.571402 0 0 0 36.49826 36.790831z m0 0" fill="#07B6B5" p-id="9885"></path></svg>