<?xml version="1.0" standalone="no"?><!DOCTYPE svg PUBLIC "-//W3C//DTD SVG 1.1//EN" "http://www.w3.org/Graphics/SVG/1.1/DTD/svg11.dtd"><svg t="1715414193344" class="icon" viewBox="0 0 1024 1024" version="1.1" xmlns="http://www.w3.org/2000/svg" p-id="23848" xmlns:xlink="http://www.w3.org/1999/xlink" width="256" height="256"><path d="M702.464 218.726v-46.694c-4.3-19.66-20.275-7.578-20.275-7.578l-111.411 96.052c-24.576 16.998-1.639 29.696-1.639 29.696l109.568 95.232c21.914 16.179 23.552-8.602 23.552-8.602v-43.418c111.411-34.816 156.877 104.653 156.877 104.653 4.3 7.578 6.758 0 6.758 0 43.213-209.1-163.43-219.34-163.43-219.34z m0 0" fill="#FABE00" p-id="23849"></path><path d="M414.72 122.88H187.802c-35.84 0-64.922 29.082-64.922 64.922V414.72c0 35.635 29.082 64.922 64.922 64.922H414.72c35.635 0 64.922-29.082 64.922-64.922V187.802c0-35.84-29.287-64.922-64.922-64.922z" fill="#0081CC" p-id="23850"></path><path d="M414.72 544.358H187.802c-35.84 0-64.922 29.287-64.922 64.922v226.918c0 35.84 29.082 64.922 64.922 64.922H414.72c35.635 0 64.922-29.082 64.922-64.922V609.28c0-35.635-29.287-64.922-64.922-64.922z" fill="#A4A4A4" p-id="23851"></path><path d="M836.198 544.358H609.28c-35.635 0-64.922 29.082-64.922 64.922v226.918c0 35.636 29.082 64.922 64.922 64.922h226.918c35.636 0 64.922-29.082 64.922-64.922V609.28c0-35.635-29.082-64.922-64.922-64.922z" fill="#0081CC" p-id="23852"></path></svg>