<?xml version="1.0" standalone="no"?><!DOCTYPE svg PUBLIC "-//W3C//DTD SVG 1.1//EN" "http://www.w3.org/Graphics/SVG/1.1/DTD/svg11.dtd"><svg t="1715246243950" class="icon" viewBox="0 0 1024 1024" version="1.1" xmlns="http://www.w3.org/2000/svg" p-id="28612" id="mx_n_1715246243950" xmlns:xlink="http://www.w3.org/1999/xlink" width="32" height="32"><path d="M760.704 153.6a109.696 109.696 0 1 1-106.069333 137.898667v1.066666h-186.496a29.269333 29.269333 0 0 0-29.226667 27.818667l-0.042667 1.450667v182.869333h91.733334a109.781333 109.781333 0 1 1 0 58.496h-91.733334v190.165333c0 15.616 12.202667 28.458667 27.776 29.226667h187.989334v1.109333a109.781333 109.781333 0 0 1 215.765333 28.16 109.696 109.696 0 0 1-215.765333 28.245334v1.024h-186.496a87.765333 87.765333 0 0 1-87.765334-85.546667V563.2H317.866667a109.781333 109.781333 0 1 1 0-58.496h62.464V321.834667c0-47.744 38.101333-86.570667 85.546666-87.765334H654.634667v1.024a109.781333 109.781333 0 0 1 106.069333-81.493333z m0 607.104a51.2 51.2 0 1 0 0 102.4 51.2 51.2 0 0 0 0-102.4z m-124.373333-277.973333a51.2 51.2 0 1 0 0 102.4 51.2 51.2 0 0 0 0-102.4z m-424.234667 0a51.2 51.2 0 1 0 0 102.4 51.2 51.2 0 0 0 0-102.4zM760.746667 212.096a51.2 51.2 0 1 0 0 102.4 51.2 51.2 0 0 0 0-102.4z" fill="#01c4fd" fill-opacity=".45" p-id="28613"></path></svg>