<?xml version="1.0" standalone="no"?><!DOCTYPE svg PUBLIC "-//W3C//DTD SVG 1.1//EN" "http://www.w3.org/Graphics/SVG/1.1/DTD/svg11.dtd"><svg t="1724730803745" class="icon" viewBox="0 0 1024 1024" version="1.1" xmlns="http://www.w3.org/2000/svg" p-id="4403" width="16" height="16" xmlns:xlink="http://www.w3.org/1999/xlink"><path d="M602.624 861.696c-7.68-9.216-15.872-19.968-23.04-33.28-8.192-12.8-14.848-27.648-19.456-43.008l-12.8-31.744 40.96-49.664-40.96-49.664 13.312-33.28c11.776-30.72 25.088-54.272 41.984-75.264l1.024-1.536 25.088-25.088 57.856 9.728 22.016-60.416 33.792-6.656c33.28-6.144 68.608-6.144 102.4 0l36.352 6.144 20.992 61.44 3.584-0.512V393.216H16.896v434.688c0 25.088 20.48 45.056 45.056 45.056h551.936l-9.728-9.728-1.536-1.536z m-506.88-227.328L217.088 747.52c9.216 8.704 9.728 23.04 1.024 31.744-4.096 4.608-10.752 7.168-16.384 7.168s-11.264-1.536-15.36-6.144l-122.88-114.176c-8.704-7.68-13.312-19.968-13.312-33.28s4.608-25.6 13.312-33.28L185.856 486.4c9.216-8.704 23.552-8.192 31.744 1.024 8.704 9.216 8.192 23.552-1.024 31.744l-121.856 113.152c1.024 0.512 1.024 1.536 1.024 2.048z m236.032-138.24l-55.808 283.136c-2.048 11.264-11.264 18.432-22.016 18.432-1.536 0-3.072 0-4.096-0.512-12.288-2.56-20.48-14.336-17.92-26.112l55.808-283.136c2.56-12.288 14.336-20.48 26.112-17.92 12.288 2.048 19.968 13.824 17.92 26.112z m168.448 170.496l-122.88 114.176c-4.096 3.584-9.728 6.144-15.36 6.144-6.144 0-12.288-2.56-16.384-7.168-8.704-9.216-8.192-23.552 1.024-31.744L468.48 634.88v-3.072l-121.344-113.152c-9.216-8.704-9.728-23.04-1.024-31.744 8.704-9.216 23.04-9.728 31.744-1.024l122.88 114.176c8.704 7.68 13.312 19.968 13.312 33.28s-5.12 25.088-13.824 33.28z m407.04-478.72c0-25.088-20.48-45.056-45.056-45.056H61.952c-25.088 0-45.056 20.48-45.056 45.056V348.16h890.368V187.904z m-320 69.632c0 11.264-9.216 20.992-20.992 20.992h-28.16c-11.264 0-20.992-9.216-20.992-20.992v-28.16c0-11.264 9.216-20.992 20.992-20.992h28.16c11.264 0 20.992 9.216 20.992 20.992v28.16z m121.856 0c0 11.264-9.216 20.992-20.992 20.992H660.48c-11.264 0-20.992-9.216-20.992-20.992v-28.16c0-11.264 9.216-20.992 20.992-20.992h28.16c11.264 0 20.992 9.216 20.992 20.992v28.16z m121.856 0c0 11.264-9.216 20.992-20.992 20.992h-28.16c-11.264 0-20.992-9.216-20.992-20.992v-28.16c0-11.264 9.216-20.992 20.992-20.992h28.16c11.264 0 20.992 9.216 20.992 20.992v28.16z m0 0" fill="#75B1FC" p-id="4404"></path><path d="M957.44 689.664l35.328-43.52-3.584-8.704c-3.584-12.288-8.704-23.04-15.872-33.28-5.632-10.752-12.288-18.944-18.944-28.16L947.2 568.32l-54.272 7.168c-10.752 0-23.04-7.168-26.112-17.408l-17.408-50.688-10.752-1.536c-28.16-5.632-57.344-5.632-85.504 0l-8.704 1.536-18.944 52.736c-3.584 10.752-15.872 17.408-26.112 15.872l-52.736-8.704-7.168 7.168c-15.872 18.944-26.112 40.448-35.328 63.488l-3.584 8.704 35.328 41.984c7.168 8.704 7.168 23.04 0 31.232l-35.328 41.984 3.584 8.704c3.584 12.288 8.704 24.576 15.872 35.328 5.632 10.752 12.288 18.944 18.944 28.16l7.168 7.168 54.272-8.704c10.752-1.536 23.04 5.632 26.112 15.872l17.408 52.736 10.752 1.536c28.16 7.168 59.392 7.168 87.552 0l8.704-1.536 17.408-52.736c3.584-10.752 15.872-17.408 26.112-15.872l52.736 8.704 7.168-8.704c13.824-17.408 26.112-38.4 33.28-61.44l3.584-8.704-33.28-40.448c-7.68-9.728-7.68-23.552-0.512-32.256z m-159.744 86.016c-39.936 0-70.656-30.72-70.656-70.656 0-39.936 30.72-70.656 70.656-70.656 39.936 0 70.656 30.72 70.656 70.656 0 40.448-30.72 70.656-70.656 70.656z m0 0" fill="#75B1FC" p-id="4405"></path><path d="M779.776 697.856m-228.864 0a228.864 228.864 0 1 0 457.728 0 228.864 228.864 0 1 0-457.728 0Z" fill="#75B1FC" p-id="4406"></path><path d="M780.8 595.456v-19.968l-74.24 46.08 74.24 46.08v-34.816c36.864 8.192 64.512 41.472 64.512 80.896 0 45.568-37.376 83.456-83.456 83.456-45.568 0-83.456-37.376-83.456-83.456 0-10.24-8.192-18.432-18.432-18.432s-18.432 8.192-18.432 18.432c0 66.048 54.272 120.32 120.32 120.32s120.32-54.272 120.32-120.32c0-59.392-44.032-109.568-101.376-118.272z m0 0" fill="#FFFFFF" p-id="4407"></path></svg>